<?xml version="1.0" encoding="iso-8859-1"?>
<!-- Generator: Adobe Illustrator 12.0.1, SVG Export Plug-In . SVG Version: 6.00 Build 51448)  -->
<!DOCTYPE svg PUBLIC "-//W3C//DTD SVG 1.1//EN" "http://www.w3.org/Graphics/SVG/1.1/DTD/svg11.dtd" [
	<!ENTITY ns_svg "http://www.w3.org/2000/svg">
	<!ENTITY ns_xlink "http://www.w3.org/1999/xlink">
]>
<svg  version="1.1" id="&#xB808;&#xC774;&#xC5B4;_1" xmlns="&ns_svg;" xmlns:xlink="&ns_xlink;" width="684.019" height="280.624"
	 viewBox="0 0 684.019 280.624" style="overflow:visible;enable-background:new 0 0 684.019 280.624;" xml:space="preserve">
<g>
	<path style="fill-rule:evenodd;clip-rule:evenodd;fill:#0EA9E0;" d="M448.178,12.69c-6.376,0-11.46,1.293-15.29,6.369
		c-3.792,3.785-6.33,8.853-6.33,15.221c0,166.692,0,166.692,0,166.692c0,6.321,2.538,11.397,6.33,15.228
		c3.83,5.069,8.914,6.361,15.29,6.361c5.084,0,10.16-1.292,15.244-6.361c3.83-3.83,5.084-8.906,5.084-15.228
		c0-166.692,0-166.692,0-166.692c0-6.369-1.254-11.437-5.084-15.221C458.338,13.983,453.262,12.69,448.178,12.69z M574.153,175.468
		c-5.084,6.322-11.413,10.236-20.328,10.236c-8.914,0-16.536-3.914-21.62-10.236c-5.084-7.652-7.622-16.514-7.622-26.704
		c0-10.152,2.538-17.758,7.622-25.372c5.084-6.453,12.706-10.284,21.62-10.284c8.915,0,15.244,3.831,20.328,10.284
		c6.499,7.614,9.045,15.22,9.045,25.372C583.198,158.954,580.652,167.815,574.153,175.468z M606.064,95.349
		c-13.998-15.221-31.911-22.881-52.239-22.881c-21.62,0-38.155,7.661-52.154,21.59c-12.706,15.267-19.167,33.157-19.167,54.707
		c0,21.589,6.461,40.771,19.167,54.747c13.999,15.221,30.534,22.836,52.154,22.836c20.328,0,38.241-7.615,52.239-22.836
		c12.706-13.976,19.082-33.158,19.082-54.747C625.146,127.214,618.771,109.324,606.064,95.349z M359.021,175.468
		c-5.075,6.322-12.706,10.236-21.619,10.236c-8.868,0-16.49-3.914-21.621-10.236c-5.168-7.652-7.706-16.514-7.706-26.704
		c0-10.152,2.538-17.758,7.706-25.372c5.131-6.453,12.753-10.284,21.621-10.284c8.913,0,16.543,3.831,21.619,10.284
		c5.084,7.614,7.668,15.22,7.668,25.372C366.688,158.954,364.104,167.815,359.021,175.468z M387.017,75.006
		c-8.914,0-15.244,5.122-19.082,13.975c-8.914-11.438-21.62-16.514-36.864-16.514c-17.828,0-34.456,7.661-45.908,22.881
		c-12.706,13.975-19.083,31.865-19.083,53.415c0,21.589,6.376,39.479,19.083,54.747c11.452,15.221,28.081,22.836,45.908,22.836
		c15.244,0,27.95-6.361,36.864-16.515c3.838,8.899,10.168,12.729,19.082,12.729c6.376,0,11.461-1.292,15.376-6.361
		c3.792-3.83,6.329-8.906,6.329-15.228c0-104.377,0-104.377,0-104.377c0-5.077-2.537-10.146-6.329-15.222
		C398.478,77.543,393.393,75.006,387.017,75.006z M226.67,0C26.704,0,26.704,0,26.704,0C11.414,0,0,11.445,0,26.666
		C0,221.27,0,221.27,0,221.27c0,13.982,11.414,25.504,26.704,25.504c0,0,13.999,0,36.996,0c0,8.907,0,24.127,0,31.742
		c0,2.539,3.791,2.539,5.083,1.291c11.41-10.152,44.49-33.033,44.49-33.033c113.397,0,113.397,0,113.397,0
		c13.998,0,25.458-11.521,25.458-25.504c0-5.069,0-5.069,0-5.069c-6.376,5.069-15.291,6.361-15.291,6.361s-124.813,0-132.482,0
		c-7.622,0-20.329-3.83-22.866-16.513c-1.296-12.73,5.08-17.806,5.08-17.806c81.485-110.7,81.485-110.7,81.485-110.7
		c-61.115,0-61.115,0-61.115,0s-22.913-1.246-22.913-28.042c0-26.658,26.705-26.658,26.705-26.658s110.731,0,127.398,0
		c6.331,0,10.16,1.284,13.999,3.822l0,0C252.128,11.445,240.668,0,226.67,0z M235.592,171.646c7.614,0,12.698,1.285,16.536,5.067
		c0-118.174,0-118.174,0-118.174c-82.781,113.107-82.781,113.107-82.781,113.107S225.378,171.646,235.592,171.646z"/>
	<path style="fill-rule:evenodd;clip-rule:evenodd;fill:#0EA9E0;" d="M665.933,41.895C641.682,8.907,603.526,12.69,603.526,12.69
		s-3.831,2.539-3.831,5.076c1.285,3.823,3.831,3.823,3.831,3.823s33.08-3.823,54.699,25.381
		c20.453,26.79,16.623,50.917,15.377,52.163c0,2.584,2.538,6.368,5.076,6.368c3.791,0,5.084-5.076,5.084-5.076
		S687.554,72.467,665.933,41.895z M604.819,35.572c0,0-5.124,1.247-5.124,3.784c0,3.824,3.831,5.077,3.831,5.077
		s24.158-2.539,36.865,14.105c13.998,16.467,12.751,39.349,12.751,40.595c0,2.584,1.247,5.114,3.793,5.114
		c3.828,0,5.074-3.822,5.074-3.822s1.385-26.666-13.996-45.718C632.77,34.28,604.819,35.572,604.819,35.572z M607.356,56.001
		c0,0-5.122,0-5.122,5.076c1.292,2.53,3.83,5.069,3.83,5.069s15.251,0,21.62,10.152c5.085,8.899,3.839,20.298,3.839,20.298
		s1.246,5.122,3.791,5.122c3.831,1.246,6.367-3.83,6.367-3.83s1.255-13.976-7.62-26.666
		C625.146,57.247,607.356,56.001,607.356,56.001z"/>
</g>
</svg>
